<svg width="31" height="30" viewBox="0 0 31 30" fill="none" xmlns="http://www.w3.org/2000/svg">
<g clip-path="url(#clip0_2023_970)">
<path d="M16.5835 27.5443C13.1081 30.8326 7.52014 30.8196 4.06414 27.4984C0.609128 24.1791 0.595513 18.8081 4.01765 15.4683L4.01477 15.4663L16.5855 3.38651L18.1576 1.87637C20.7612 -0.625458 24.9815 -0.625458 27.5851 1.87637C30.1887 4.3782 30.1887 8.4342 27.5851 10.937L13.7281 24.1146L13.7232 24.1108C12.0155 25.693 9.29369 25.6818 7.60637 24.0686C5.91904 22.4545 5.90842 19.8524 7.56276 18.2213L7.55789 18.2156L9.10087 16.7421L16.8159 9.36783L18.3579 10.8433L9.10087 19.691C8.24847 20.5047 8.24847 21.8255 9.10087 22.64C9.95328 23.4545 11.3354 23.4545 12.1868 22.64L26.0137 9.42492L26.0099 9.42214L26.0622 9.37897C27.798 7.71137 27.798 5.00612 26.0622 3.33863C24.3264 1.67114 21.5136 1.67103 19.7778 3.33863L19.7313 3.3893L19.7285 3.38737L18.1573 4.89654L5.58587 16.9765C2.98227 19.4783 2.98227 23.5343 5.58587 26.0361C8.18947 28.538 12.4108 28.538 15.0124 26.0361L26.012 15.4663L27.5831 13.9572L29.1542 15.4663L27.5831 16.9765L16.5855 27.5463L16.5835 27.5443Z" fill="#533737"/>
</g>
<defs>
<clipPath id="clip0_2023_970">
<rect width="31" height="30" fill="white"/>
</clipPath>
</defs>
</svg>
