<svg width="15" height="15" viewBox="0 0 15 15" fill="none" xmlns="http://www.w3.org/2000/svg">
<path d="M12 5.5C12 8.5 7.5 12 7.5 12C7.5 12 3 8.5 3 5.5C3 3.049 5.049 1 7.5 1C9.951 1 12 3.049 12 5.5Z" stroke="#533737" stroke-linecap="round" stroke-linejoin="round"/>
<path d="M7.5 7C8.32843 7 9 6.32843 9 5.5C9 4.67157 8.32843 4 7.5 4C6.67157 4 6 4.67157 6 5.5C6 6.32843 6.67157 7 7.5 7Z" stroke="#533737" stroke-linecap="round" stroke-linejoin="round"/>
<path d="M11.5773 10.5H12.5L14 14H1L2.5 10.5H3.4227" stroke="#533737" stroke-linecap="round" stroke-linejoin="round"/>
</svg>
