<svg width="77" height="26" viewBox="0 0 77 26" fill="none" xmlns="http://www.w3.org/2000/svg">
<path d="M28.1719 3.7357C28.2991 3.85138 28.4888 3.85138 28.6159 3.7357L30.3987 2.11417C30.5258 1.99848 30.5258 1.82398 30.3987 1.70829L28.6159 0.0867628C28.4888 -0.0289209 28.2991 -0.0289209 28.1719 0.0867628L26.3569 1.70829C26.1973 1.85339 26.1973 1.96907 26.3569 2.11417L28.1719 3.7357ZM28.3939 2.722L27.4713 1.91025L28.3939 1.10047L29.2864 1.91025L28.3939 2.722ZM7.16315 21.0784H31.5131C33.201 21.0784 34.4426 19.9491 34.4426 18.4138V13.608C34.4426 9.43949 31.2264 6.97876 27.9175 6.97876C24.5741 6.97876 21.3903 9.41008 21.3903 13.608C21.3903 16.4746 23.1428 18.3569 24.8285 19.6314H7.16315C4.10647 19.6314 1.59301 17.6628 1.59301 14.8531V13.3472C1.59301 10.5689 4.07414 8.57088 7.16315 8.57088H13.8477C14.0698 8.57088 14.2293 8.42579 14.2293 8.22383V7.47091C14.2293 7.26699 14.0698 7.1219 13.8477 7.1219H7.16315C3.2162 7.1219 0 9.75713 0 13.3472V14.8531C0 18.4432 3.2162 21.0784 7.16315 21.0784ZM28.8725 19.6314C26.4517 19.6314 22.9833 17.2864 22.9833 13.608C22.9833 10.1924 25.4666 8.42579 27.9175 8.42579C30.3361 8.42579 32.8496 10.1924 32.8496 13.608V18.4432C32.8496 19.1099 32.2784 19.6314 31.5454 19.6314H28.8725Z" fill="white"/>
<path d="M50.1331 19.6314H48.4474V13.5218C48.4474 9.72774 46.4104 7.41211 43.0368 7.41211C39.6611 7.41211 37.624 9.72774 37.624 13.5218V16.5903C37.624 20.0353 39.7258 21.0785 42.5583 21.0785H46.7272C46.2508 23.598 44.4358 24.5529 40.394 24.5529H39.2472C39.0252 24.5529 38.8657 24.698 38.8657 24.8999V25.6529C38.8657 25.8568 39.0252 25.9999 39.2472 25.9999H40.394C45.3282 25.9999 47.7792 24.5235 48.3202 21.0785H50.1331V19.6314ZM42.5583 19.6314C40.616 19.6314 39.217 19.2256 39.217 16.5903V13.5218C39.217 10.5101 40.5837 8.85914 43.0368 8.85914C45.4878 8.85914 46.8566 10.5101 46.8566 13.5218V19.6314H42.5583Z" fill="white"/>
<path d="M59.0774 3.7357C59.2067 3.85138 59.3964 3.85138 59.5236 3.7357L61.3063 2.11417C61.4335 1.99848 61.4335 1.82398 61.3063 1.70829L59.5236 0.0867628C59.3964 -0.0289209 59.2067 -0.0289209 59.0774 0.0867628L57.2645 1.70829C57.105 1.85339 57.105 1.96907 57.2645 2.11417L59.0774 3.7357ZM59.3016 2.722L58.379 1.91025L59.3016 1.10047L60.1919 1.91025L59.3016 2.722ZM49.528 21.0784H63.0265C64.7122 21.0784 65.9539 19.9491 65.9539 18.4138V13.608C65.9539 9.43949 62.7398 6.97876 59.4288 6.97876C56.0854 6.97876 52.9037 9.41008 52.9037 13.608C52.9037 16.4746 54.6541 18.3569 56.3419 19.6314H49.528C48.6054 19.6314 47.9048 19.9491 47.9048 20.3549C47.9048 20.7608 48.6054 21.0784 49.528 21.0784ZM60.3837 19.6314C57.9651 19.6314 54.4945 17.2864 54.4945 13.608C54.4945 10.1924 56.9778 8.42579 59.4288 8.42579C61.8474 8.42579 64.363 10.1924 64.363 13.608V18.4432C64.363 19.1099 63.7896 19.6314 63.0567 19.6314H60.3837Z" fill="white"/>
<path d="M66.1442 25.9999C69.3281 25.9999 72.8935 24.698 72.8935 18.906V11.465C72.8935 10.7414 73.4648 10.3081 74.1352 10.3081C74.8336 10.3081 75.407 10.7414 75.407 11.465V14.2747C75.407 14.4766 75.5665 14.6217 75.7885 14.6217H76.6163C76.8405 14.6217 77 14.4766 77 14.2747V11.465C77 9.93166 75.726 8.85913 74.1352 8.85913C72.5745 8.85913 71.3005 9.96107 71.3005 11.465V18.906C71.3005 23.4823 69.1686 24.5529 66.1442 24.5529C65.9222 24.5529 65.7627 24.698 65.7627 24.8999V25.6529C65.7627 25.8568 65.9222 25.9999 66.1442 25.9999Z" fill="white"/>
<mask id="mask0_2371_1318" style="mask-type:luminance" maskUnits="userSpaceOnUse" x="4" y="10" width="13" height="10">
<path d="M4.77051 10.2534H16.2966V19.7905H4.77051V10.2534Z" fill="white"/>
</mask>
<g mask="url(#mask0_2371_1318)">
<path d="M4.77051 18.5727C4.77051 19.2335 5.36115 19.7708 6.0876 19.7708H15.6155V19.2394H15.0054V17.9081H15.6155V17.6747H16.3484V17.1414H15.9086V15.8101H16.3484V15.2767H15.872V14.8218L15.1477 13.5905H15.9086V12.8748L13.9966 10.7494H7.25595L5.51851 13.2415C5.22103 13.4611 5.02703 13.7925 5.02703 14.1689C5.02703 14.8238 5.6112 15.3591 6.33118 15.365C5.84617 15.5414 5.50127 15.9728 5.50127 16.4767C5.50127 16.8414 5.68665 17.1649 5.97119 17.3845C5.30079 17.4394 4.77051 17.9492 4.77051 18.5727ZM5.6112 14.1689C5.6112 13.9199 5.76425 13.7042 5.98628 13.5905H14.7123V14.8336H6.34412C5.94101 14.8336 5.6112 14.5356 5.6112 14.1689ZM6.82051 15.8101H15.3223V17.1414H6.82051C6.41525 17.1414 6.0876 16.8434 6.0876 16.4767C6.0876 16.1081 6.41525 15.8101 6.82051 15.8101ZM6.0876 17.9081H14.4191V19.2394H6.0876C5.68449 19.2394 5.35684 18.9414 5.35684 18.5727C5.35684 18.2061 5.68449 17.9081 6.0876 17.9081Z" fill="#38B6FF"/>
</g>
</svg>
