<svg width="31" height="31" viewBox="0 0 31 31" fill="none" xmlns="http://www.w3.org/2000/svg">
<path d="M28.4166 6.45837C28.4166 8.59847 26.6818 10.3334 24.5416 10.3334C22.4015 10.3334 20.6666 8.59847 20.6666 6.45837C20.6666 4.31828 22.4015 2.58337 24.5416 2.58337C26.6818 2.58337 28.4166 4.31828 28.4166 6.45837Z" fill="#38B6FF"/>
<path opacity="0.5" d="M20.1967 2.59753C19.3894 2.58337 18.4775 2.58337 17.4375 2.58337H13.5625C9.33436 2.58337 7.22026 2.58337 5.66724 3.53507C4.79823 4.0676 4.0676 4.79823 3.53507 5.66724C2.58337 7.22026 2.58337 9.33436 2.58337 13.5625V14.8542C2.58337 17.8634 2.58337 19.3681 3.07498 20.5548C3.73046 22.1374 4.98773 23.3946 6.57021 24.0501C7.42311 24.4034 8.44007 24.5027 10.0616 24.5307C11.1599 24.5496 11.7091 24.559 12.1453 24.8127C12.5815 25.0665 12.8531 25.5252 13.3962 26.4428L14.0964 27.6258C14.7205 28.6802 16.2796 28.6802 16.9037 27.6258L17.6039 26.4428C18.1469 25.5252 18.4186 25.0664 18.8548 24.8127C19.291 24.559 19.84 24.5496 20.9385 24.5307C22.56 24.5027 23.577 24.4034 24.4298 24.0501C26.0124 23.3946 27.2696 22.1374 27.9251 20.5548C28.4167 19.3681 28.4167 17.8634 28.4167 14.8542V13.5625C28.4167 12.5227 28.4167 11.6107 28.4025 10.8035C27.3759 11.7163 26.0236 12.2709 24.5417 12.2709C21.3315 12.2709 18.7292 9.66853 18.7292 6.45837C18.7292 4.97651 19.2837 3.62416 20.1967 2.59753Z" fill="#ECE1D1"/>
</svg>
